<svg width="1200" height="630" viewBox="0 0 1200 630" fill="none" xmlns="http://www.w3.org/2000/svg">
  <rect width="1200" height="630" fill="#F5F7FB" />
  <rect x="48" y="48" width="1104" height="534" rx="32" fill="#0F172A" />
  <circle cx="1010" cy="132" r="120" fill="#2563EB" fill-opacity="0.22" />
  <circle cx="190" cy="520" r="150" fill="#10B981" fill-opacity="0.18" />
  <text x="96" y="182" fill="#93C5FD" font-family="'Segoe UI', sans-serif" font-size="26" letter-spacing="7">VCARD QR GENERATOR</text>
  <text x="96" y="270" fill="#F8FAFC" font-family="'Segoe UI', sans-serif" font-size="64" font-weight="700">Create and share contact</text>
  <text x="96" y="346" fill="#F8FAFC" font-family="'Segoe UI', sans-serif" font-size="64" font-weight="700">QR codes with prerendered SEO pages</text>
  <text x="96" y="420" fill="#CBD5E1" font-family="'Segoe UI', sans-serif" font-size="30">Live generator, downloadable themes, social metadata, and static landing pages.</text>
  <rect x="870" y="250" width="190" height="190" rx="18" fill="#EFF6FF" />
  <rect x="902" y="282" width="32" height="32" fill="#0F172A" />
  <rect x="948" y="282" width="32" height="32" fill="#0F172A" />
  <rect x="994" y="282" width="32" height="32" fill="#0F172A" />
  <rect x="902" y="328" width="32" height="32" fill="#0F172A" />
  <rect x="994" y="328" width="32" height="32" fill="#0F172A" />
  <rect x="902" y="374" width="32" height="32" fill="#0F172A" />
  <rect x="948" y="374" width="32" height="32" fill="#0F172A" />
  <rect x="994" y="374" width="32" height="32" fill="#0F172A" />
</svg>
